<mxfile host="app.diagrams.net" agent="Mozilla/5.0 (Windows NT 10.0; Win64; x64; rv:137.0) Gecko/20100101 Firefox/137.0" version="26.2.8">
  <diagram name="Page-1" id="m3cI7JSIF8au_ubDK_ZU">
    <mxGraphModel dx="963" dy="1597" grid="1" gridSize="10" guides="1" tooltips="1" connect="1" arrows="1" fold="1" page="1" pageScale="1" pageWidth="850" pageHeight="1100" math="0" shadow="0">
      <root>
        <mxCell id="0" />
        <mxCell id="1" parent="0" />
        <mxCell id="fCjp3aF1WN8j-PdhTGa--2" value="&quot;Grid&quot;" style="rounded=1;whiteSpace=wrap;html=1;align=right;verticalAlign=top;spacingRight=68;spacingTop=10;fontSize=31;fillColor=#dae8fc;strokeColor=#6c8ebf;fontColor=#3333FF;" vertex="1" parent="1">
          <mxGeometry x="610" y="-973" width="730" height="470" as="geometry" />
        </mxCell>
        <mxCell id="fCjp3aF1WN8j-PdhTGa--7" value="Power Distributors" style="rounded=1;whiteSpace=wrap;html=1;align=left;verticalAlign=top;spacingLeft=14;spacingTop=4;fontSize=17;fontStyle=1;fontColor=#CDA2BE;fillColor=#f5f5f5;strokeColor=#666666;" vertex="1" parent="1">
          <mxGeometry x="680" y="-883" width="620" height="110" as="geometry" />
        </mxCell>
        <mxCell id="fCjp3aF1WN8j-PdhTGa--1" value="Power Generators" style="rounded=1;whiteSpace=wrap;html=1;align=left;verticalAlign=top;spacingLeft=14;spacingTop=4;fontSize=17;fontStyle=1;fontColor=#CDA2BE;fillColor=#f5f5f5;strokeColor=#666666;" vertex="1" parent="1">
          <mxGeometry x="640" y="-663" width="670" height="150" as="geometry" />
        </mxCell>
        <mxCell id="NKzNgoghLEQpJoM4aB22-1" value="" style="endArrow=classic;html=1;rounded=0;exitX=0.75;exitY=1;exitDx=0;exitDy=0;curved=1;strokeColor=default;strokeWidth=4;align=center;verticalAlign=middle;fontFamily=Helvetica;fontSize=11;fontColor=default;labelBackgroundColor=default;" parent="1" source="NKzNgoghLEQpJoM4aB22-14" edge="1">
          <mxGeometry width="50" height="50" relative="1" as="geometry">
            <mxPoint x="580" y="-241" as="sourcePoint" />
            <mxPoint x="1100" y="-503" as="targetPoint" />
            <Array as="points">
              <mxPoint x="820" y="-241" />
              <mxPoint x="1100" y="-211" />
            </Array>
          </mxGeometry>
        </mxCell>
        <mxCell id="NKzNgoghLEQpJoM4aB22-2" value="" style="endArrow=classic;html=1;rounded=0;exitX=0.996;exitY=0.893;exitDx=0;exitDy=0;exitPerimeter=0;curved=1;strokeWidth=4;" parent="1" source="NKzNgoghLEQpJoM4aB22-17" edge="1">
          <mxGeometry width="50" height="50" relative="1" as="geometry">
            <mxPoint x="730" y="-321" as="sourcePoint" />
            <mxPoint x="840" y="-523" as="targetPoint" />
            <Array as="points">
              <mxPoint x="840" y="-341" />
            </Array>
          </mxGeometry>
        </mxCell>
        <mxCell id="NKzNgoghLEQpJoM4aB22-3" value="&lt;div&gt;&lt;font style=&quot;font-size: 17px;&quot;&gt;&lt;b&gt;&lt;u&gt;PJM Interconnection&lt;/u&gt;&lt;/b&gt;&amp;nbsp;&lt;/font&gt;&lt;/div&gt;&lt;div&gt;&lt;font&gt;electricity grid operator for all or parts of 13 states, including all of New Jersey&lt;/font&gt;&lt;/div&gt;" style="rounded=1;whiteSpace=wrap;html=1;verticalAlign=top;fillColor=#FFFF99;strokeColor=#d6b656;strokeWidth=5;fontSize=13;" parent="1" vertex="1">
          <mxGeometry x="290" y="-893" width="210" height="80" as="geometry" />
        </mxCell>
        <mxCell id="NKzNgoghLEQpJoM4aB22-4" value="&lt;div&gt;&lt;b&gt;&lt;u&gt;Basic Generation Service (BGS)&lt;/u&gt;&lt;/b&gt;&lt;/div&gt;&amp;nbsp;2 annual auctions run in Feb&lt;br&gt;sets cost of electricity for most NJ&lt;br&gt;residents &amp;amp; biz for a 12-month period starting June 1" style="rounded=0;whiteSpace=wrap;html=1;fontSize=11;" parent="1" vertex="1">
          <mxGeometry x="120" y="-733" width="260" height="60" as="geometry" />
        </mxCell>
        <mxCell id="NKzNgoghLEQpJoM4aB22-5" value="runs annual auction" style="endArrow=classic;html=1;rounded=0;exitX=0;exitY=0.5;exitDx=0;exitDy=0;entryX=0.5;entryY=0;entryDx=0;entryDy=0;" parent="1" source="NKzNgoghLEQpJoM4aB22-3" target="NKzNgoghLEQpJoM4aB22-4" edge="1">
          <mxGeometry width="50" height="50" relative="1" as="geometry">
            <mxPoint x="380" y="-703" as="sourcePoint" />
            <mxPoint x="430" y="-753" as="targetPoint" />
          </mxGeometry>
        </mxCell>
        <mxCell id="NKzNgoghLEQpJoM4aB22-6" value="&lt;div&gt;&lt;font style=&quot;font-size: 16px;&quot;&gt;&lt;b&gt;&lt;u&gt;Federal Energy Regulatory Commission&lt;/u&gt;&lt;/b&gt;&lt;/font&gt;&lt;/div&gt;&lt;div&gt;&lt;br&gt;&lt;/div&gt;" style="rounded=1;whiteSpace=wrap;html=1;verticalAlign=top;" parent="1" vertex="1">
          <mxGeometry x="20" y="-1041" width="290" height="100" as="geometry" />
        </mxCell>
        <mxCell id="NKzNgoghLEQpJoM4aB22-7" value="&lt;div&gt;&lt;b&gt;&lt;u&gt;&lt;font style=&quot;font-size: 15px;&quot;&gt;Board of Public Utilities (BPU)&lt;/font&gt;&lt;/u&gt;&lt;/b&gt;&lt;/div&gt;&lt;div&gt;&lt;br&gt;&lt;/div&gt;&lt;div&gt;&lt;font style=&quot;font-size: 11px;&quot;&gt;state agency to oversee the regulated utilities&lt;/font&gt;&lt;/div&gt;&lt;div&gt;&lt;font style=&quot;font-size: 11px;&quot;&gt;five Commissioners appointed by Gov for 6yr term&lt;/font&gt;&lt;/div&gt;" style="rounded=1;whiteSpace=wrap;html=1;verticalAlign=top;" parent="1" vertex="1">
          <mxGeometry x="350" y="-1050.25" width="260" height="97.25" as="geometry" />
        </mxCell>
        <mxCell id="NKzNgoghLEQpJoM4aB22-8" value="&lt;div&gt;&lt;b&gt;&lt;u&gt;&lt;font style=&quot;font-size: 11px;&quot;&gt;Atlantic City Electric (ACE)&lt;/font&gt;&lt;/u&gt;&lt;/b&gt;&lt;/div&gt;&lt;div&gt;&lt;span&gt;&lt;font style=&quot;font-size: 9px;&quot;&gt;547000 customers in south NJ&lt;/font&gt;&lt;/span&gt;&lt;/div&gt;" style="rounded=1;whiteSpace=wrap;html=1;" parent="1" vertex="1">
          <mxGeometry x="696" y="-847" width="130" height="60" as="geometry" />
        </mxCell>
        <mxCell id="NKzNgoghLEQpJoM4aB22-9" value="&lt;div&gt;&lt;b&gt;&lt;u&gt;LS Power Development&lt;/u&gt;&lt;/b&gt;&lt;/div&gt;&lt;div&gt;&lt;font style=&quot;font-size: 10px;&quot;&gt;a power generator that participates in the PJM auction process&lt;/font&gt;&lt;/div&gt;" style="rounded=1;whiteSpace=wrap;html=1;" parent="1" vertex="1">
          <mxGeometry x="67.5" y="-223" width="155" height="60" as="geometry" />
        </mxCell>
        <mxCell id="NKzNgoghLEQpJoM4aB22-10" value="" style="endArrow=classic;html=1;rounded=0;exitX=-0.011;exitY=0.386;exitDx=0;exitDy=0;exitPerimeter=0;curved=1;entryX=0.133;entryY=0;entryDx=0;entryDy=0;entryPerimeter=0;" parent="1" source="NKzNgoghLEQpJoM4aB22-3" target="NKzNgoghLEQpJoM4aB22-4" edge="1">
          <mxGeometry width="50" height="50" relative="1" as="geometry">
            <mxPoint x="350" y="-833" as="sourcePoint" />
            <mxPoint x="190" y="-873" as="targetPoint" />
            <Array as="points">
              <mxPoint x="220" y="-863" />
              <mxPoint x="140" y="-843" />
            </Array>
          </mxGeometry>
        </mxCell>
        <mxCell id="NKzNgoghLEQpJoM4aB22-11" value="&lt;div&gt;&lt;font style=&quot;font-size: 11px;&quot;&gt;&lt;b&gt;&lt;u&gt;Jersey Central Power &amp;amp; Light (JCPL)&lt;/u&gt;&lt;/b&gt;&lt;/font&gt;&lt;/div&gt;&lt;div&gt;&lt;span&gt;&lt;font style=&quot;font-size: 9px;&quot;&gt;1.1 million customers in central and north NJ&lt;/font&gt;&lt;/span&gt;&lt;/div&gt;" style="rounded=1;whiteSpace=wrap;html=1;" parent="1" vertex="1">
          <mxGeometry x="851" y="-847" width="130" height="60" as="geometry" />
        </mxCell>
        <mxCell id="NKzNgoghLEQpJoM4aB22-12" value="&lt;div&gt;&lt;span&gt;&lt;font style=&quot;font-size: 11px;&quot;&gt;&lt;b&gt;&lt;u&gt;Public Service Enterprise Group, Inc. (PSEG)&lt;/u&gt;&lt;/b&gt;&lt;/font&gt;&lt;/span&gt;&lt;/div&gt;&lt;div&gt;&lt;span style=&quot;font-weight: 400;&quot;&gt;&lt;font style=&quot;font-size: 10px;&quot;&gt;2.3 million electric and 1.9 million gas customers&lt;/font&gt;&lt;/span&gt;&lt;/div&gt;" style="rounded=1;whiteSpace=wrap;html=1;" parent="1" vertex="1">
          <mxGeometry x="1001" y="-847" width="140" height="60" as="geometry" />
        </mxCell>
        <mxCell id="NKzNgoghLEQpJoM4aB22-13" value="&lt;div&gt;&lt;font style=&quot;font-size: 11px;&quot;&gt;&lt;b&gt;&lt;u&gt;Rockland Electric (RECO)&lt;/u&gt;&lt;/b&gt;&lt;/font&gt;&lt;/div&gt;&lt;div&gt;&lt;font style=&quot;font-size: 9px;&quot;&gt;&lt;span&gt;61,109 residential customers in northern NJ&lt;/span&gt;&lt;/font&gt;&lt;/div&gt;" style="rounded=1;whiteSpace=wrap;html=1;" parent="1" vertex="1">
          <mxGeometry x="1156" y="-847" width="130" height="60" as="geometry" />
        </mxCell>
        <mxCell id="NKzNgoghLEQpJoM4aB22-14" value="&lt;div&gt;&lt;u&gt;&lt;b&gt;&lt;font style=&quot;font-size: 10px;&quot;&gt;Commercial and Industrial Energy Price (CIEP)&lt;/font&gt;&lt;br&gt;&lt;/b&gt;&lt;/u&gt;&lt;/div&gt;&lt;div&gt;&lt;br&gt;&lt;/div&gt;" style="rounded=1;whiteSpace=wrap;html=1;verticalAlign=top;" parent="1" vertex="1">
          <mxGeometry x="100" y="-501" width="240" height="160" as="geometry" />
        </mxCell>
        <mxCell id="NKzNgoghLEQpJoM4aB22-15" value="&lt;font style=&quot;font-size: 10px;&quot;&gt;auction for&lt;b&gt;&lt;u&gt;&lt;span style=&quot;color: rgb(0, 0, 255);&quot;&gt; large commercial &amp;amp; industrial customers&lt;/span&gt;&lt;/u&gt;&lt;/b&gt; conducted on Feb 7&lt;/font&gt;&lt;br&gt;&lt;font style=&quot;font-size: 10px; color: rgb(255, 0, 0);&quot;&gt;&lt;b&gt;secured commitments for approximately 7,556 megawatts (MWs) of customer requirements&lt;/b&gt;&lt;/font&gt;" style="rounded=0;whiteSpace=wrap;html=1;" parent="1" vertex="1">
          <mxGeometry x="110" y="-476" width="220" height="80" as="geometry" />
        </mxCell>
        <mxCell id="NKzNgoghLEQpJoM4aB22-16" value="&lt;div align=&quot;left&quot;&gt;&lt;font style=&quot;font-size: 10px;&quot;&gt;&lt;b&gt;&lt;u&gt;2025 Auction winners&lt;/u&gt;&lt;/b&gt;&lt;/font&gt;&lt;/div&gt;&lt;div align=&quot;left&quot;&gt;&lt;font style=&quot;font-size: 10px;&quot;&gt;BP Energy Company&lt;/font&gt;&lt;br&gt;&lt;font style=&quot;font-size: 10px;&quot;&gt;Boston Energy Trading &amp;amp; Marketing LLC&lt;/font&gt;&lt;br&gt;&lt;font style=&quot;font-size: 10px;&quot;&gt;ConocoPhillips Co&lt;/font&gt;&lt;br&gt;&lt;font style=&quot;font-size: 10px;&quot;&gt;Constellation Energy Generation LLC&lt;/font&gt;&lt;br&gt;&lt;font style=&quot;font-size: 10px;&quot;&gt;DTE Energy Trading Inc&lt;/font&gt;&lt;br&gt;&lt;font style=&quot;font-size: 10px;&quot;&gt;Five Elements Entergy II LLC&lt;/font&gt;&lt;br&gt;&lt;font style=&quot;font-size: 10px;&quot;&gt;Hartree Partners LP&lt;/font&gt;&lt;/div&gt;" style="rounded=0;whiteSpace=wrap;html=1;align=left;" parent="1" vertex="1">
          <mxGeometry x="969" y="-639" width="200" height="120" as="geometry" />
        </mxCell>
        <mxCell id="NKzNgoghLEQpJoM4aB22-17" value="&lt;div&gt;&lt;b&gt;&lt;u&gt;&lt;font style=&quot;font-size: 10px;&quot;&gt;Residential and Small Commercial Pricing (RSCP)&lt;br&gt;&lt;/font&gt;&lt;/u&gt;&lt;/b&gt;&lt;/div&gt;&lt;div&gt;&lt;br&gt;&lt;/div&gt;" style="rounded=1;whiteSpace=wrap;html=1;verticalAlign=top;" parent="1" vertex="1">
          <mxGeometry x="360" y="-501" width="240" height="150" as="geometry" />
        </mxCell>
        <mxCell id="NKzNgoghLEQpJoM4aB22-18" value="&lt;font style=&quot;font-size: 10px;&quot;&gt;auction for&lt;/font&gt;&lt;font style=&quot;font-size: 10px;&quot;&gt;&amp;nbsp;&lt;span style=&quot;color: rgb(0, 0, 255);&quot;&gt;&lt;u&gt;&lt;b&gt;residential and small- to medium-sized commercial&lt;/b&gt;&lt;/u&gt;&lt;/span&gt;&lt;/font&gt;&lt;font style=&quot;font-size: 10px;&quot;&gt; customers conducted on Feb 10&lt;/font&gt;&lt;br&gt;&lt;font style=&quot;font-size: 10px; color: rgb(255, 0, 0);&quot;&gt;&lt;b&gt;secured commitments for approximately 7,556 megawatts (MWs) of customer requirements&lt;/b&gt;&lt;/font&gt;" style="rounded=0;whiteSpace=wrap;html=1;" parent="1" vertex="1">
          <mxGeometry x="365" y="-476" width="230" height="80" as="geometry" />
        </mxCell>
        <mxCell id="NKzNgoghLEQpJoM4aB22-19" value="" style="endArrow=classic;html=1;rounded=0;exitX=0.5;exitY=1;exitDx=0;exitDy=0;entryX=0.25;entryY=0;entryDx=0;entryDy=0;" parent="1" source="NKzNgoghLEQpJoM4aB22-4" target="NKzNgoghLEQpJoM4aB22-14" edge="1">
          <mxGeometry width="50" height="50" relative="1" as="geometry">
            <mxPoint x="460" y="-633" as="sourcePoint" />
            <mxPoint x="510" y="-683" as="targetPoint" />
          </mxGeometry>
        </mxCell>
        <mxCell id="NKzNgoghLEQpJoM4aB22-20" value="" style="endArrow=classic;html=1;rounded=0;exitX=0.5;exitY=1;exitDx=0;exitDy=0;entryX=0.213;entryY=-0.005;entryDx=0;entryDy=0;entryPerimeter=0;" parent="1" source="NKzNgoghLEQpJoM4aB22-4" target="NKzNgoghLEQpJoM4aB22-17" edge="1">
          <mxGeometry width="50" height="50" relative="1" as="geometry">
            <mxPoint x="400" y="-603" as="sourcePoint" />
            <mxPoint x="450" y="-653" as="targetPoint" />
          </mxGeometry>
        </mxCell>
        <mxCell id="NKzNgoghLEQpJoM4aB22-21" value="2 auctions administered by &lt;br&gt;&lt;div&gt;NERA (National Economic Research Associates)&lt;/div&gt;" style="text;html=1;align=center;verticalAlign=middle;resizable=0;points=[];autosize=1;strokeColor=none;fillColor=none;labelBackgroundColor=default;" parent="1" vertex="1">
          <mxGeometry x="150" y="-586" width="280" height="40" as="geometry" />
        </mxCell>
        <mxCell id="NKzNgoghLEQpJoM4aB22-22" value="" style="html=1;verticalLabelPosition=bottom;align=center;labelBackgroundColor=#ffffff;verticalAlign=top;strokeWidth=2;strokeColor=#0080F0;shadow=0;dashed=0;shape=mxgraph.ios7.icons.home;" parent="1" vertex="1">
          <mxGeometry x="910" y="-1038" width="24" height="25.5" as="geometry" />
        </mxCell>
        <mxCell id="NKzNgoghLEQpJoM4aB22-23" value="" style="shape=image;editableCssRules=.*;verticalLabelPosition=bottom;labelBackgroundColor=default;verticalAlign=top;aspect=fixed;imageAspect=0;image=data:image/svg+xml,PHN2ZyB4bWxucz0iaHR0cDovL3d3dy53My5vcmcvMjAwMC9zdmciIHZpZXdCb3g9Ii0wLjUgLTAuNSAyOCAyOCIgaGVpZ2h0PSIyOCIgd2lkdGg9IjI4Ij4mI3hhOwkgIDxzdHlsZSB0eXBlPSJ0ZXh0L2NzcyI+JiN4YTsJCS5zdDB7c3RvcC1jb2xvcjojMDBjZWFjO30mI3hhOwkJLnN0MXtzdG9wLWNvbG9yOiMwNzgzOGY7fSYjeGE7CSAgPC9zdHlsZT4mI3hhOwk8ZGVmcz4mI3hhOwkJPGxpbmVhckdyYWRpZW50IGdyYWRpZW50VW5pdHM9InVzZXJTcGFjZU9uVXNlIiB5Mj0iMjUuMzA5IiB4Mj0iMjMuNDU0IiB5MT0iMy40NzQiIHgxPSIyLjAzOSIgaWQ9IkEiPiYjeGE7CQkJPHN0b3AgY2xhc3M9InN0MCIvPiYjeGE7CQkJPHN0b3AgY2xhc3M9InN0MSIgb2Zmc2V0PSIxIi8+JiN4YTsJCTwvbGluZWFyR3JhZGllbnQ+JiN4YTsJPC9kZWZzPiYjeGE7CTxwYXRoIGZpbGw9InVybCgjQSkiIGQ9Ik0yNi45OTYgMTIuNDIybC02LjY1LTUuNTE2YTEuNCAxLjQgMCAwIDAtMS40ODQtLjE5NmMtLjQ5LjIyNC0uNzk4LjcyOC0uNzk4IDEuMjc0djIuNTM0TDEzLjcxIDYuOTA2YTEuNCAxLjQgMCAwIDAtMS40ODQtLjE5NmMtLjQ5LjIyNC0uNzk4LjcyOC0uNzk4IDEuMjc0VjEyLjFIOC41ODZWLjljMC0uNzctLjYzLTEuNC0xLjQtMS40SC45Qy4xMy0uNS0uNS4xMy0uNS45djI1LjJjMCAuNzcuNjMgMS40IDEuNCAxLjRoMjUuMmMuNzcgMCAxLjQtLjYzIDEuNC0xLjRWMTMuNWExLjM5IDEuMzkgMCAwIDAtLjUwNC0xLjA3OHpNNS43NTggMjQuN0gyLjN2LTMuNWgzLjQ1OHptMC02LjNIMi4zdi0zLjVoMy40NTh6bTAtNi4zSDIuM1Y4LjgyNGgzLjQ1OHptMC02LjA3NkgyLjNWMi4zaDMuNDU4ek0yNC42ODYgMjQuN0g4LjU1OHYtMy41aDEuODQ4Yy43NyAwIDEuNC0uNjMgMS40LTEuNHMtLjYzLTEuNC0xLjQtMS40SDguNTU4di0zLjVIMTIuOGMuNzcgMCAxLjQtLjYzIDEuNC0xLjR2LTIuNTM0bDQuMzU0IDMuNjEyYTEuNCAxLjQgMCAwIDAgMS40ODQuMTk2Yy40OS0uMjI0Ljc5OC0uNzI4Ljc5OC0xLjI3NHYtMi41MzRsMy44NSAzLjE5MnptLTkuMzY2LTMuMTVhMS43NSAxLjc1IDAgMSAwIDAtMy41IDEuNzUgMS43NSAwIDEgMCAwIDMuNXptNi45My0xLjc1YTEuNzUgMS43NSAwIDEgMS0zLjUgMCAxLjc1IDEuNzUgMCAxIDEgMy41IDB6IiBmaWxsLXJ1bGU9ImV2ZW5vZGQiLz4mI3hhOzwvc3ZnPg==;" parent="1" vertex="1">
          <mxGeometry x="977" y="-1041" width="28" height="28" as="geometry" />
        </mxCell>
        <mxCell id="NKzNgoghLEQpJoM4aB22-24" value="" style="html=1;verticalLabelPosition=bottom;align=center;labelBackgroundColor=#ffffff;verticalAlign=top;strokeWidth=2;strokeColor=#0080F0;shadow=0;dashed=0;shape=mxgraph.ios7.icons.home;" parent="1" vertex="1">
          <mxGeometry x="920" y="-1028" width="24" height="25.5" as="geometry" />
        </mxCell>
        <mxCell id="NKzNgoghLEQpJoM4aB22-25" value="" style="html=1;verticalLabelPosition=bottom;align=center;labelBackgroundColor=#ffffff;verticalAlign=top;strokeWidth=2;strokeColor=#0080F0;shadow=0;dashed=0;shape=mxgraph.ios7.icons.home;" parent="1" vertex="1">
          <mxGeometry x="930" y="-1018" width="24" height="25.5" as="geometry" />
        </mxCell>
        <mxCell id="NKzNgoghLEQpJoM4aB22-26" value="" style="html=1;verticalLabelPosition=bottom;align=center;labelBackgroundColor=#ffffff;verticalAlign=top;strokeWidth=2;strokeColor=#0080F0;shadow=0;dashed=0;shape=mxgraph.ios7.icons.home;" parent="1" vertex="1">
          <mxGeometry x="875" y="-1028" width="24" height="25.5" as="geometry" />
        </mxCell>
        <mxCell id="NKzNgoghLEQpJoM4aB22-27" value="" style="html=1;verticalLabelPosition=bottom;align=center;labelBackgroundColor=#ffffff;verticalAlign=top;strokeWidth=2;strokeColor=#0080F0;shadow=0;dashed=0;shape=mxgraph.ios7.icons.home;" parent="1" vertex="1">
          <mxGeometry x="885" y="-1018" width="24" height="25.5" as="geometry" />
        </mxCell>
        <mxCell id="NKzNgoghLEQpJoM4aB22-28" value="" style="html=1;verticalLabelPosition=bottom;align=center;labelBackgroundColor=#ffffff;verticalAlign=top;strokeWidth=2;strokeColor=#0080F0;shadow=0;dashed=0;shape=mxgraph.ios7.icons.home;" parent="1" vertex="1">
          <mxGeometry x="895" y="-1008" width="24" height="25.5" as="geometry" />
        </mxCell>
        <mxCell id="NKzNgoghLEQpJoM4aB22-29" value="" style="shape=image;editableCssRules=.*;verticalLabelPosition=bottom;labelBackgroundColor=default;verticalAlign=top;aspect=fixed;imageAspect=0;image=data:image/svg+xml,PHN2ZyB4bWxucz0iaHR0cDovL3d3dy53My5vcmcvMjAwMC9zdmciIHZpZXdCb3g9Ii0wLjUgLTAuNSAyOCAyOCIgaGVpZ2h0PSIyOCIgd2lkdGg9IjI4Ij4mI3hhOwkgIDxzdHlsZSB0eXBlPSJ0ZXh0L2NzcyI+JiN4YTsJCS5zdDB7c3RvcC1jb2xvcjojMDBjZWFjO30mI3hhOwkJLnN0MXtzdG9wLWNvbG9yOiMwNzgzOGY7fSYjeGE7CSAgPC9zdHlsZT4mI3hhOwk8ZGVmcz4mI3hhOwkJPGxpbmVhckdyYWRpZW50IGdyYWRpZW50VW5pdHM9InVzZXJTcGFjZU9uVXNlIiB5Mj0iMjUuMzA5IiB4Mj0iMjMuNDU0IiB5MT0iMy40NzQiIHgxPSIyLjAzOSIgaWQ9IkEiPiYjeGE7CQkJPHN0b3AgY2xhc3M9InN0MCIvPiYjeGE7CQkJPHN0b3AgY2xhc3M9InN0MSIgb2Zmc2V0PSIxIi8+JiN4YTsJCTwvbGluZWFyR3JhZGllbnQ+JiN4YTsJPC9kZWZzPiYjeGE7CTxwYXRoIGZpbGw9InVybCgjQSkiIGQ9Ik0yNi45OTYgMTIuNDIybC02LjY1LTUuNTE2YTEuNCAxLjQgMCAwIDAtMS40ODQtLjE5NmMtLjQ5LjIyNC0uNzk4LjcyOC0uNzk4IDEuMjc0djIuNTM0TDEzLjcxIDYuOTA2YTEuNCAxLjQgMCAwIDAtMS40ODQtLjE5NmMtLjQ5LjIyNC0uNzk4LjcyOC0uNzk4IDEuMjc0VjEyLjFIOC41ODZWLjljMC0uNzctLjYzLTEuNC0xLjQtMS40SC45Qy4xMy0uNS0uNS4xMy0uNS45djI1LjJjMCAuNzcuNjMgMS40IDEuNCAxLjRoMjUuMmMuNzcgMCAxLjQtLjYzIDEuNC0xLjRWMTMuNWExLjM5IDEuMzkgMCAwIDAtLjUwNC0xLjA3OHpNNS43NTggMjQuN0gyLjN2LTMuNWgzLjQ1OHptMC02LjNIMi4zdi0zLjVoMy40NTh6bTAtNi4zSDIuM1Y4LjgyNGgzLjQ1OHptMC02LjA3NkgyLjNWMi4zaDMuNDU4ek0yNC42ODYgMjQuN0g4LjU1OHYtMy41aDEuODQ4Yy43NyAwIDEuNC0uNjMgMS40LTEuNHMtLjYzLTEuNC0xLjQtMS40SDguNTU4di0zLjVIMTIuOGMuNzcgMCAxLjQtLjYzIDEuNC0xLjR2LTIuNTM0bDQuMzU0IDMuNjEyYTEuNCAxLjQgMCAwIDAgMS40ODQuMTk2Yy40OS0uMjI0Ljc5OC0uNzI4Ljc5OC0xLjI3NHYtMi41MzRsMy44NSAzLjE5MnptLTkuMzY2LTMuMTVhMS43NSAxLjc1IDAgMSAwIDAtMy41IDEuNzUgMS43NSAwIDEgMCAwIDMuNXptNi45My0xLjc1YTEuNzUgMS43NSAwIDEgMS0zLjUgMCAxLjc1IDEuNzUgMCAxIDEgMy41IDB6IiBmaWxsLXJ1bGU9ImV2ZW5vZGQiLz4mI3hhOzwvc3ZnPg==;" parent="1" vertex="1">
          <mxGeometry x="1004" y="-1049" width="28" height="28" as="geometry" />
        </mxCell>
        <mxCell id="NKzNgoghLEQpJoM4aB22-30" value="" style="sketch=0;verticalLabelPosition=bottom;sketch=0;aspect=fixed;html=1;verticalAlign=top;strokeColor=none;fillColor=#000000;align=center;outlineConnect=0;pointerEvents=1;shape=mxgraph.citrix2.factory;" parent="1" vertex="1">
          <mxGeometry x="870" y="-598.71" width="39.88" height="39.42" as="geometry" />
        </mxCell>
        <mxCell id="NKzNgoghLEQpJoM4aB22-31" value="" style="shape=image;html=1;verticalAlign=top;verticalLabelPosition=bottom;labelBackgroundColor=#ffffff;imageAspect=0;aspect=fixed;image=https://cdn0.iconfinder.com/data/icons/green-world/80/Green_World-01-128.png" parent="1" vertex="1">
          <mxGeometry x="924" y="-603" width="45" height="45" as="geometry" />
        </mxCell>
        <mxCell id="NKzNgoghLEQpJoM4aB22-32" value="" style="shape=image;html=1;verticalAlign=top;verticalLabelPosition=bottom;labelBackgroundColor=#ffffff;imageAspect=0;aspect=fixed;image=https://cdn3.iconfinder.com/data/icons/energy-and-power-glyph-24-px/24/Factory_industry_mill_power_plant_production_unit-128.png" parent="1" vertex="1">
          <mxGeometry x="790" y="-603" width="48" height="48" as="geometry" />
        </mxCell>
        <mxCell id="NKzNgoghLEQpJoM4aB22-33" value="" style="shape=image;verticalLabelPosition=bottom;labelBackgroundColor=default;verticalAlign=top;aspect=fixed;imageAspect=0;image=data:image/jpeg,/9j/4AAQSkZJRgABAQAAAQABAAD/2wCEAAkGBxIPDxUPDxIVFRUVFRgVFRUVGBcVFRUVFRcdFxUVFRUYICggGB0lHRUVITEhJSkrLi4uFx8zODMtNygtLisBCgoKBggHDgcHGisZExkrKysrKysrKysrKysrKysrKysrKysrKysrKysrKysrKysrKysrKysrKysrKysrKysrK//AABEIAMkA+wMBIgACEQEDEQH/xAAbAAEBAAMBAQEAAAAAAAAAAAAABgEFBwQDAv/EAFAQAAEDAgMDBwYKBAoLAQAAAAEAAgMEEQUSIQYTMQciQVFhsfAlMjVxkaEUIzNkdIGys8HRJEJzoyY0NlJjcnWiwuEVQ0RTVGJlgoOktBb/xAAUAQEAAAAAAAAAAAAAAAAAAAAA/8QAFBEBAAAAAAAAAAAAAAAAAAAAAP/aAAwDAQACEQMRAD8A7eiIgIiICIiAsrCICIVIYnyh0sM0cMUctQZCWtfCIxDma5rS0TSvYxxzOa3QkXc0cSAgr0UhhPKHSzyvhkZLTmNzWl8wj3Wdxc0N30T3sBzRvbqRctIGosq9AREQEREBERAQohQEREBF82Ttc5zGkFzLZh0tzC4v1XCTzsjbme4NGZrbnQZnuDGD1lzgPWUH0RYe4AEnQAXJPQBxX5hlD2h7TdrgHA9YIuDwQftERARE8dyAiJ48aICIiAEREBD496J470BEKIIjE8JxOqmd8JjppKcH4unFRLFG4C9jUWhJmvzeaTk1PNNrmd2/fWb+mjmggjhNPURzCOV7mfBTJT7zeP3IMDcwgaXNa6zXvPNy5l0rF8YhpGB077FxysY0F8kjv5kcbQXPd2ALnu2FVNJWU1RXU27pI4Kl8sO9G9fTtkpg8ztHNcMxhduWuOYMcCTfIQ82wMlYZ6qOGCCWHcU0cQmlcxppRJUiIsduiZmm8gDnNbdrWnnXzGjwnCcSpZWinjpo6Yn4yndUTTMaDb+Ll0QMVufzNWaCzRfTR7HVk0VZVVFHTGWlfDSvjh3rTMymc+o3boQ7m2uJXbkuBa1zQCCMg6LhOLQ1bC+B+bKcr2kFkkbuOSSNwDmO14EBB7vHeiIgJ47kRARAiAlkTx3oCw9waC48ALn1BZXwc4PdlHBpBd/W4tb3H2daDxPwSOVxkeZmvdYuyTzxDsBbG8NuBYX7AoLbrCcldhzYZ5wySryEOqKl/ODDctJlBFuGhvfq1B6W+XMSxhFxo4ixyaA69tiLDtB4KI5QLNrcIYy1xWaAngN2dT0/mg3v/wCZgJEeeqIaBnJrKy56gfjeJ4n6tNVvYYgxoY3g0BouSTYCwuTqfWUijyi3HpJPEk8SV+0ApZEQEHj3IiAEQIgIieO5ARLogIiICIiCTZsO1tRJVMr61ssvnPzUznBtyRGxz4SWMGbRoIGgUhyg4NJDV0khramYxxzytZJuDI9zZadrYqcMhsZCZA5oc12sLfN84WeIbYRmR1PQmKaZpyvc+QR08J6d5LrmcLHmMDnX45eKj9pZXQV9JU/DvhFVu6gxNG7+D73NC1sDWa7iMsfMXPLs3MuXHKGoPxyeYO+eqrJGV1REXsglc2LcB7XPlqQ6KcPhsJGlhLgGs5z38eJr3bENNRHVvrqx0sfB+anYXNuCY3lkLS9hy+adNTwUjstI6avrKkVop6ospzKHBgpzKHTsdC6PTfRtayLLIHZiDfMMxarPDtsY942mrTFDM7RhZKJKeY8BuptLOuQMjw11+Gbigp0REBES6AiXS6AiLV4j8JdM0QbrKwBxL82a7g9ttNALWNxrcW4G4DDsNY+WSozyMLuaS12W7Y7gX9RLyPXdTOzuFn4XXCSeoDI3xuDGyPYbyxNldmyEZjckacdeuw+mCVFbUUwadw34PK+AOOc74xh0AzC2jS45iR0DTjdfTZd0smKYgJWhoa6nL7XsZBCA0NJtmbpe9v5vDVoCiwzCI4GZWhwLnOkec7i4veczruvci5sL8FKbfRhtdhAaLfppOnSd3xPWe1XihOUL0hg/0x32PUfHtQXaIiAieO9EBERAS6BEBERAREQEREBZWFlB4Tg9MdTTwn/xs/JQW2GFxS4lHTUtO0VLaYSQuaxojidJLZ00/NILA2JzcpuXZ7AXOZvSlzjGgZcWqPghca5jaaOAsNmxMa18kjqk8Ny7fAFp1cWjKLgEB+di8JijxGanqKdu/NMx82djXMke2aT46F2UNyObIwANtlyBpFwrxuEUwNxTwgjUERsFiOHQoXADusWgFVmFc+OpjqM5uJQd3JE+mPDcARPDWjVuYh3OJJ6OgIiICLKwgIiINdXYnG0BjZo2yPcWtzEcWXLwQT1NIU/S45LJUStZPBu5I4nwn9Yuke+LQ57H5InS/EdWu7xCmYamDM0HNvQQdR5lzYHQXsOHUvFSYXAMTmtDGMtLSZbMbzcstTlLR0Wyt1A6B1IPnsVE7dzB1rMrarhpmcJnC9haw4m3X6rls/6VxP10v3P+Xav1sM+8dVxt8Pq+IsPl3aDr/MkdFh89nj5XxMfQ/uXIKlQfKF6Swf6W/wCwOw+ParxQPKEfKeDD50/7DUF8iIgIiygwiysICIiDKwiICIEQEREBERAXN5KgwVFRW0chdVT1b420vnNq46UNhczLf4rIWP8AjtA2/OzAgLpC5tsw84ZFJiczGPp6mSWaWZvy1O18z3MzAk72GzgbMsQ5zjldmJAfqCY1FVS1tTIRVQ1e6kpfNFJHURSxhmS/PLnGM743D8vNsNF0dc22ke7EGRYpExscFNNBJFKflqmMTx7zzT8XDYE5X3Li0Gzba9JsgLKwiDKwiICIiDV4obVVJ2vlH7l5/BfOkPlKp7KelH9+pPD6+r2pjJtVUXbNKPX+jSn8Fih1xGq/Y03fP44e1B59ifkZx1V1aP8A2ZPX46uC8uzx8s4p6qL7p6+2wvyVTck/p9YNbHhO7q8dg4LybNtIxvEwXk2bRmxy9MclhoNLfV9aCwXP+UM+VcFHzmX3MZ2jr6vyPQFz3lDdbF8EF/8AaJum36sfRcdfUeP1EOhIiIBREQERPHcgIiWQEREBECICIUQEREHnxGpEMEkp4Mjc8nsa2/4KD5PqZkrII8QeTU08TN1SyNyMia1oaJ423cKhzhqZbuyl1gGG4NJygPthNZqBmp5GXPAbxuS5PQOdxWtr4HYu1kULDFTxuDm1jgWz5m6A0TTYs/au0IOjXA3AajlFpmwxVEWHudv54numpI2543sc05qh4uBTOGrhJcZy21nm1uiUswkjZIOD2hw9Thf8VI0URwlj4aiPeU8hcX1rBeXM7QmtaLkmxA3ou2w1DAFtdg5zJhVG4m5+DRAm4N3NYGuNxpxBQb7x3oiICIiAiIgEL4R0bGyvmF80gaHam1o82Ww4Dzj6190QaXZbD5Kdk4lABfWVEzbG/wAXLKXMPYbHgtTs87y7ig/o6L7EisFgMFyQBc8T0m3C5QZXPOUN3lnBB/Tznp6Gx9R7er8j0NQG39O92MYK5rHOayacucASGgtitmIBtftt+QX6IiAiIgIiICIiAiIEBLoiAURa6qxIxTFkjHmMsaWOjjmlJfmeHtcI2ENAAjI1ucx00QbFFM7QbaQUcRlc2fm2c5pp6hpMeYNcW52tbcFzeJtqOsL2U+1NPI3OxtQ4dYpao66G1xHa+qDbzQtkbkka1zTa7XAOBsQRcHtsV+14sLr9+Huyva0PyszxyxOLcjCSWytaTznOFxpp13Xse/KC7XQX01OnUBxKDAkFy24uACRfUA3AJF+Byu9hX4pmMazLEGhrbgBgAaCCQQANBrdSuC7RyTTOqHUlS2OSmgy3hfmEjXzbxpv0AOYQem68Oz22w3j6d9PPrLI9jmsLrtnnmcwFvEGzRcW0Ife2W5C7EoJLQRdvEdIvqLr9XUiMbmhmleaSoc2app2R8x5LY3MYyR7uhgaQ/p7elV6DCLXz4i6ORzXRyOboWGON7tLa5nDQm60mNbbxU0kUJjmD5ZGsGaIgBts73G7hpla8Ai+o14FBVhFp/wDTpczMymqdW3beIjiNLtLgfq0K2lM5xY0v0cWguFra210JNtei6D6XRarEa6aKpiAjc6AxSmRzGl7hKHR7poDTcAtMpJtbQaharavas0tPvWRTjK5rnExHWJjg6VozEDM5gc0dPOuBzTYKpFoMP2n37c8dJUlh/WystwadOfr5zgbcCwherZ2eokZI+qYYyZ5N2w5bthBAiuWk3JAzHtcR0INqEXjraiSN7C1pcwh2cNaXPzc3JY5gAPOvoejh0+efGxHbNDOA5waDkFrnhc5rNvwuekgcSLhtEupHZXbL4bEZGwzuzOkcxoY0FkbXmMB5z2Bu13G17Gw0NlftzTxVkFNJJuS572yCTdkC0dwHva87o5nxWzWvnCCuS6FEBERAS/jwURAQIiAiIgIiFBGcscLX4HVFzQS1rHNJF8rt40XHUbEj1Eqrw2nbFBHHG0Na1jWta0WaAALAAcFD8ucTjg0j2ucAySMuAcWhzS/KQ8AjOLuGnXY9C+42JlfT0wFbUtLGsMrXyzEPJymTnxvY4Hzhe50KC5RGi2nf+aICh6WmjbtFO5rGBxhpyXBoDiSyoDiTx1DGD/tCuFFwu/hDMPm8B/uz9F/w/wAgtEREGVCcoLAcQwcOAP6W7iAeEd+ntA9gV0oXb8+UsHHzqT3RjtHX1fkQukREBTXKY0HBq24B+IedbEXGoOvaqVSPKhUPZhtQ2zRG6nlDnkm4eMu7YBcWzDec4nQtaP1kFBgAAo4ABYbiOwGgAyDgvctPshM6TD6d7gBeJmWwIuzLzHEOFwSLG3atwgL8yRh7S14DmuFi0i4IOhBB4hfpEERyNMDcHjygD42ovYAXIneATbjoAPUAtm/YahdWOrpId5M6QSh0hzZXNaxrQ3sG6aQDe1zawNlrORx18JaOqeoH75x7etW5QFlYRBlYREBESyAiIgIiICIiCH5a/QVT/Wh/+hnq71bQjmj1D8FEctZ8iTjrfAP37D+Ct4+A9QQfpAiICiID/COYfNoe6Xt7er29FuufhzDtNKXG+Wnhy2ubPO8aNAf+c9Hb0aB0BERAUJt8fKmDD5zL92O0d35G7UHt96Vwb6RN921BeIiICm+UhgOEVlwPkXHXoI1B6NQQDxVIpzlG9D1v0d/d9SD37Km+H0p66aH7sLaLT7GOvhlGeukgPtiatwgIERBCcjJvhjh1VVQP3l+3rV3ZQXIwfJ8o6qyoH94K9QEREBEQePcgBEWLIMoieO5ACIiAh8e9EQQnLWfI7x1zwD96FdN4BQfLX6Kt11MA/eK9QAgREBQVBTh21FQ97RdlE0sNza5cAXW0FyDbp4q9uoagP8J6n6Az3Pb0/X1+zpC58d6J470QFBbfelsG+kTfdtV6oHb70xgv7ef7tnTb8fbxAXwREQFO8oo8kVtv+Hf3diolPconois/YP7eg+vuQfXYX0TQ/Q6f7lq3i0ewvomh+h0/3LVvEBEQIOfcirv0KpHVXVA+yV0Fc65Ev4rWf2hP3M9vv/AdFKAUREBERACIE8eNUBERAREQERCg5/y2u8mxjrrIB73H8F0Fc55cj+gUw66+Ae6Q/gujIMBEWUGLrnOH17TtTM4CSzqFrReKUOvnj4tLAQO06erp6MueUf8AK6b+zv8AHF+aDoaIiAuf7femcF/bT/ds7OzrH18R0Fc+299NYL+1n+7ag6AiIgKd5RCP9E1l/wDcSaden19xVEpnlKp2PwmrL2NcWQSOaXAEtdlPObcGx7Qg9OwZ8k0P0On+6at6pzk7ha3CaMta0F1LAXEAAuO7GptxKpEGEWVhBzfkRd8RXD5/Mfbb8u38B0hcz5EfNxAfPpD7yPwXTEAoiICIiAiIgIiICIlkBERBznlwbejox/1GDq/myjp9a6OpvbfZc4nHBGJd1uallRfKX5t3m5lg5tr5uOvqVGgIiIC53Sfyvm/s/wDxxeOHt6OiKci2XLcYfiu90dT7jdZDpq058+a3+r4ZenjwQUaysIgLnu3npzBf2k/2G+OH+fQlO49syauuoqze5BSOe7JlLt5vGhvnZgG2seg/UgokQBEBT3KIPJFb9Hk+yVQ2Wv2iwz4ZSTUodk3sbmZ7F2XMCL2BBPtCDXcnh8j0P0WH7AVEtbs7hfwOjgpM+fcxMjz2y5sgtfLc24cLlbFAQIiDmHIkdcSb1Vjj7XPH4dn59PUrsRsecMfVOM+9FTLvAMhZu+c92XznX+U6AOHDVVSAsrHjvRBlYRLICIE8eNEBETx3ICIsIMohTx3oCIUCAiDx7kHj3ICIFjx3oMonjvQoCLCeO5BlFjx3LKAiJ470BE8d6BARB49yDx7kBFgIUGSieO9CgIieO5ACLHjuQoP/2Q==;" parent="1" vertex="1">
          <mxGeometry x="977" y="-964" width="101.15" height="81" as="geometry" />
        </mxCell>
        <mxCell id="NKzNgoghLEQpJoM4aB22-34" value="&lt;div&gt;Proposal&lt;/div&gt;&lt;div&gt;to place a floor and cap on supply prices&lt;/div&gt;" style="shape=parallelogram;perimeter=parallelogramPerimeter;whiteSpace=wrap;html=1;fixedSize=1;fontSize=9;fillColor=#E6FFCC;strokeColor=#d6b656;" parent="1" vertex="1">
          <mxGeometry x="80" y="-823" width="130" height="60" as="geometry" />
        </mxCell>
        <mxCell id="NKzNgoghLEQpJoM4aB22-35" value="The energy secured in the RSCP auction will meet one-third of the State’s residential and small business electric load requirements for the next three energy years, starting June 1, 2025.&amp;nbsp; The remaining two-thirds of customer supply requirements for the 12-month time period beginning June 1, 2025 will be met by electric supply secured in the BGSAuctions held in 2023 and 2024." style="text;whiteSpace=wrap;html=1;fontSize=11;fillColor=default;" parent="1" vertex="1">
          <mxGeometry x="679" y="-483" width="270" height="80" as="geometry" />
        </mxCell>
        <mxCell id="NKzNgoghLEQpJoM4aB22-36" value="&lt;p style=&quot;text-align: left;&quot;&gt;The supply acquired through the CIEP auction is for one year.&amp;nbsp;&lt;/p&gt;&lt;p style=&quot;text-align: left;&quot;&gt;For CIEP ratepayers, when compared to last year, the prices for all EDCs are higher.&amp;nbsp; The CIEP price is primarily driven by the cost of electric generating capacity from PJM’s Reliability Pricing Model (RPM) Auction and the cost of meeting the State Renewable Portfolio Standard (RPS).&amp;nbsp; The CIEP price constitutes only a small portion of monthly bills of CIEP customers for the period from June 1, 2025 to May 31, 2026.&lt;/p&gt;&lt;p style=&quot;text-align: left;&quot;&gt;The CIEP product is a full requirements product.&amp;nbsp; The energy portion of the product is priced at the spot price of energy.&amp;nbsp; The price in the auction is meant to cover the costs of capacity and meeting the State RPS.&amp;nbsp; As of June 2024, approximately 82.53% of the CIEP load is being provided through individual contracts with third-party suppliers.&amp;nbsp;These contracts are negotiated in the competitive marketplace and are not affected by the CIEP auction &lt;br&gt;results.&lt;/p&gt;" style="text;whiteSpace=wrap;html=1;fontSize=11;fillColor=default;" parent="1" vertex="1">
          <mxGeometry x="855" y="-341" width="410" height="230" as="geometry" />
        </mxCell>
        <mxCell id="fCjp3aF1WN8j-PdhTGa--3" value="Customers (residential and commercial)" style="text;html=1;align=center;verticalAlign=middle;whiteSpace=wrap;rounded=0;fontStyle=5" vertex="1" parent="1">
          <mxGeometry x="840" y="-1080" width="240" height="30" as="geometry" />
        </mxCell>
        <mxCell id="fCjp3aF1WN8j-PdhTGa--4" value="" style="shape=image;verticalLabelPosition=bottom;labelBackgroundColor=default;verticalAlign=top;aspect=fixed;imageAspect=0;image=data:image/jpeg,/9j/4AAQSkZJRgABAQAAAQABAAD/2wCEAAkGBxATEhUSExMWFhUXFxYVFxUWFRcWGRcVGBYXFhUVGBYYHSggGB0lGxcVIjEiJSkrLi4uFx8zODMtNygtLisBCgoKBQUFDgUFDisZExkrKysrKysrKysrKysrKysrKysrKysrKysrKysrKysrKysrKysrKysrKysrKysrKysrK//AABEIAJEBWgMBIgACEQEDEQH/xAAbAAABBQEBAAAAAAAAAAAAAAAAAQMEBQYCB//EAEIQAAEDAgMEBgcHAQgCAwAAAAEAAhEDIQQSMQUTQVEGImFxgZEyUqGxwdHwFBYjQpTT4WIkM1NygpKi8UPSNLLy/8QAFAEBAAAAAAAAAAAAAAAAAAAAAP/EABQRAQAAAAAAAAAAAAAAAAAAAAD/2gAMAwEAAhEDEQA/APcUIQgEIQgE3vm5skjMROWbwLEwuysTjMU9uP3pLQ0Dqm8imKgpFpdwk5yLRpeZQbdCQFKgEIQgEIQgZrHrM7SR/wAXH4Lp5u0d/uTeI1HZf2hd/mHYPf8A9IHCuaJt5+9dpvD+iEAT1gOw+8InrR2fFDfSPcB7/wCEN9I9w+KBxCEIBCEIG6zoFtTYd66YICbaJdPBtvHiisfyjU+wcfrtQLTJJJ4aDt5lOpGtiyVAIQhAIQmqlTgNfd2lAVanAXPL4nsXbBAvdc0qcdpOp5pxAIQhAIQhAIQhAIQhAIQuXOAQdITQrA6Se7TzTqAQhCAQklNVMS0cZ7Bf3IGNqYrIzUAmwJ4cS7uABPhHFeNbXou3zS2kHNdhCXE1Cyq67uIcDOlpvBvwW72891bH06FTM2luS6GluYkmo6SMpI/uYsZuO1Ur6DQ8sEXwW8c4EHMNAA51pENJGoi3BBYYWttChiKAe+W1DDqb3uNnZg06HLETEk9vAb2lUnv4g8FTbR2E6rXo196W7oyWASHRJaOy5N+1WZub9V3A8D2do7EEpCZbW4OsfYe4p2UCoQkKBmJLu4N9k/FGHdMnuHsn4lLRPVnnJ87+5Jgx1fEnzJPuhA+m8P6I7k4maToYD/SD7EC0uPefZb4JaWrj2gewIpNho+u9FDSeZJ9tvZCBxCEIBN1XwO3Qd6cTIMu7G28eKBWw1vdqfeUUWnU6n2DgFyes6ODffyT4QCEIQCEJqo8nqt158AgKlQzA193aUtKmB38TzKWnTAXaAQhCAQhJKBUJHOA1Te+HCT3D4myB1Ca655D2/wAI3PMk+NvIIOnVWjj4anyXOdx0b4m3uXbWAaWXSBrI46u8hHtStpN5eJv704hAISSlQcOB5x4Jl7wNXnuEfAIqsZN5J5XPsCRtMflYB3wPYEDRIP8AJLz5CQF0x3qNk+s6IHl7gn9zPpGezQeS6qPa0XIHBBmOkGz2sqtxWdzq+7dSZTkCm6z+s4RIa0PqEmdOZhecvrVnVHkGsSaDHl8HI1sAtaGsEQCJLm6FxmbrXU8ZUxlPEYrOwNYKrWi5hobLC4OaA2WlrtHekeMKDXoZq9aR1/s5dEZd1eAxwE+rec0zrBBQW2yukOMbi6dHECadRsy5rGuaTvi09WJbFF1zB6wsFuC0EXWaxexa7sbRxTXM3bWgPpunNLW1w3KYi+/MzplGsq4pQPQJb/QbDuHAeCCSWEWHWHI6+fHxXDSBoS3sdp4fwUrK50I+B8jY+BXZqt427wgXeOGrfEX+RTdau2ImJte2vf2LsUm/lMdx+Gibh2bUHLzHE93Z70DlUiIHGB4cfZKWlq4dx8xHwUcMl05AYtY8deI7kuUZh1DcdnA9h7Sglu0TH5WjnHkACfd7Uj8sHqu0PP5puk1pPomAANDrx+Hkgk1nQ0/V9AumNgRyTREloGmpHdp7fcn0AhCEDdZ8Dt0HedFweqABqbDv4n3lEySToLDv/Mfh5paLZ6x46d38oO6bIELtCJQCEkpl7yTlHieXZ3oFe8k5W68Ty/lOU2ACB9dqba9jREj3lLveQJ9nvQOoTXX7B7UbsnVx8Le6/tQducBquN+OEnuE+3RK2k0cE4gazu5Ad5+A+aN2Tq4+Fv5Tq4dUaOI80CCi0Xi/M3PmU5Ca3vIE+HzRmfyA7z8kDqE1ld63kPmjcjiSe8/JB06oBqR5rnfDgCfD5rtrANAF0gbzO4NjvPwEpC13MDuHzTqEDYpDiSfE+4WTiEIGi48B7YXL3uGuUeJPyRUpuP5yByAHvITTWN4Fzu7/ANv5QLLzoYHOI9mvuTbSwGRL3c9Y8dAnfs86+Wv/ACPwUhrABAEIMJsfZVbCYGqysGg5wRldIIyUaPpaNnITEHUcVFYHOxdfMSXvw7MpANmkvDWPzEXMEHOZtGoWx6SVGtpDNoalPkNHh0kusB1bk2gFZTCF/wBurmQ176VGGAGHMJfMtjMSe60AwLght9mvmlTPNjD5tBT1SiHa+aq9gEHD0Yljt2wFvcII5HTUKyzOGonu+RQMmiRbUdl/Np+CVmb8pBHf8/mnhVHO/I296pMbtYtxVKgabQKhcA/eZXw1oIIbluCSBrzKCzfUAu6mR2gTfwuuGPYG2fDuWYi57HJwBxNjIHO0nvHLu1SB4cZc0xwtI7XW+vNA7SpkD057wNeJsioHS0yNeXMEc+5cilSOkeB+C4xFEBpv23aOF+CDvFOcGkyNOXHzSMcGiM48h4nVVu1TX3T30WMJa1xbmGpAkiAeNwD26KRgMfv6bHMAhwBcJIy82m2sgjwKCdhrjNz07uH12p9ctXSATVZ8C2psPruTqgOxTc4EjO6cjZuWj0nxyuL93NA9lnqDQa/L4lSVxSZA+PM812gRxhZ7bXSCju3to1mF4E9R7JkcAScs2vOgmVdFxdppxPPsHzUDZNMPoUrCMgkkSTa4E+9BT4PpI8gMqNe5+gNN1E70ASSwFwvGvK5sp+H23RMjdVbEi4a4WEkyHm3CeYKTpJgaTabagpt6jxMMBOV3VcPbr2SoOyNl4dlOgXUqZp1GtaRkaAypJLCLaOJy345eZQXFPbtDg2oLx/dO1PCwXTNv4cx1nDXWm8aGD+Xmo20NmYSm2RRbmcSGNBLcz36nqnkJJ5A8lnDsdm/+zy8Z30S78aq0kMZmdlYHdUdU2t6R04ho8J0lpVa+6p9YRObSbkEgHhIA7eCuc7vV8z8pVW7o7RN5qjuqu+Mp/ZDMpqMzvcGPDRncHEDI13IH83GUE2HcwPCUu7PrHwgJxCBvct7+8k+9dNYBoF0kLhzQCVNb5vPyv7kb3kHeUe9A6hNZ3erHeflK5c88XNH13oH0kqPmn85PcP4Sw3k498/FA8XgamO9c79vOe6/uTYHJnuC6Lz/AEj/AFfwg63v9J8o96cUcVP62/XipCDg0gTJC6CRrwbcl0gEIQgzvTIuyUw0uDs+YBoa4nLTeYhwI4jUax2LGbOwFRuKrzXfO7w8PaTJe4u3Tc02ZNtLEkWIE7PpRWa19IunqB9RsRZ4yhriOLRJnkFlcFRc/F4l1WAMtJzmkWzubUzYYcbtnXUkkXiA2nRps4WmCc0AgkwZIcQTOh0Vg4Zbh0D+rRVvRuTh4kg56o/qb+I6xt6QsNNQoGF2JTqZ3uqVXAPewF1U/kOUmYtfNoguH7VpDUg8er1gshtvaTXYtpZTdDKdJwdYRNZxMcZhoVpszZNN7A/M+HOc9oD3k5MxyHuLcpiBqqTpDsui2uWFpINOi6C46mtVBOWbjTU2Qa5m0qZ6slrRYy3XsEcFNp4xp9BzX9jT7OxQHdHcMBJzgAHSo9oAuTYGOdzJVOzY1JuEZWcak7pjg3eukucBlZJm5JA74QapzXHVoHkT5nRMGi11mtIGhM37QDKZwGzalNmTeOeNeu6SOzNFwnq9ctF3Af0tAJ9vyQdBxgAB0xpIjxngs3sUHDV6lC4Y55cLtgZoLXaW1APgjFbM2k9pbvaZaQbDPTknTM4CTre8GNAs9t7Y2MpljywQQGOeyu6YEOMBw1cM1uwdiD09rgBcpDVnQT26DzXnuysRtB9Nr2U6xFhIrMfYAZRfj63epD9s7QZOduIEEAH7O18g+kRluY4Dj2oNli6kA5nQIJdFoaNbqp6N095Vq4gty/8AiYLWaOs6472jvDlktr9Kat2PLbXcx9GoC5zcpZR6usgh06TZWWxelbKDGUnmkQAS9wzsl0lzzlcLXJ8jMIN65wGqjvdNzZvlP8e9QMBtehXPUeHkXyNMlvIu+o71OeQOs834AX8uZ7UHNWoA3M7qsHA2nlPIcIUXYVeKFNuR4LWhptxFualsoF/WeLcG8B2nmU/1WiLADwQV+2iX0KrQxxJY6BEXgkCZtdV+x8YypgqbXsn8IMeARAcBDr8L6eCt69cm176NHpEcf8o7VmNht3FZzXAZTUdmg2pkWYb8wDfXyCCw2PUrPcalVheWjLTLS2Azi8gkdd1p5RFryxhqrn7QqvFJ53dJrTdkZ3eNzAV3tXGGmzqiXuIaxvNxIE9wmT3Ku6J4cMp1Hk3e8uLiZn+onvJQW2/qf4Z82/NQMBXqZ68MvvBN2/4dP+pWG8c/0bN9Y6n/ACj4paeBpCeqJNySJJPMnigbNSr6vtb/ACkmry/5j4AKR9kp+o3yCPstP1R5BBHLX+qPFxPxQGv5MHkpH2Wn6rfII+y0/Vb5BAxNT1h5hJB4uH+8qT9nZ6o8gl3DPVHkgiZR6zfMH3tSiPXb9dyl7pvIeSN23kPJBGLh63/3+aBl5/8AFx+Kk7tvIeSXdjkPJBFhv0z5olvP/i35KVuxyCMg5BBHFQesf+PyUpJlCVBX1pzEiZ7AbfA/Wq6pY8fmt2/MatUh2Qm5E85g+a5cyeIPf8wgcbXYbhzT3EFBrN5j3qI7D3mB3zfzsfaiHj/9/wDSCn29WAxDHGSGU5yR/elz53d7TFMuE8WCbArO7MpVKmJxIbckYd4bP/iDCWAzqW6tm+YNmACrXaTg7EPNSN21lJjyHEuBJqOblDZN3ESQOA4SqXDVHOrYqWuJNSnIaHXAot64sdZOYCRGaL5ZDU9HcRmpPax8jev64BJMgOzkH8xzT9Qp7dksNMUjmFMQC0ukvGpDj2k34m8m5Cg9G6zhvxkBO+l2U9WTRpTlgeja3zlXWeqeAHt+SB8NAFh5WXme3ekUbRq4auzdkspii53Ua9rXvIyONi4knlxGov6Ac5sangwA+Z4Lzvp1TJq1Xg+g2myXEEyGVahFwRBzDSEHoGNe2q00wTldZxZqW8WiNJFptqYuualDO5hIMMu2nq0O0DjGpAmBMDXWIl4UNexrgZa5ocOUESNNU+SB2DyQMGk9wu4t/wAuvmko4ID/AK17ynt8OAJ7hbz0R1jyHtKByygbXpbyk9jbuiWwJh4u3sFwNVJcxv5jPefgF0H8gfKAgyfQ3EvFIULMeIc0P1dTLREC8EEEEG/V7VpaGEAOZxkrK7ao7qqXTAad5lBuabyS5wJ0LXCbRYQmKnSR9ZmSmSWxBxMQHusN3TDo6/AmIGvYg7YRW2m8NlzaRLnRMZstINBOlnNP+1wWidTD5zgDgQWgujkB8vao/RDZ7aVIuA9Mzmgy4C2YzxJL3f6lbVK5Jys14ng35nsQR6LWU+q1gBNmsAjtLnRoTxKk0qF8z7u9g7AkY1rdJc46nj48giqYEvPc0cezm5B2apPo37eH8+CYzFxhtzxeR1R2N5ldim5/pdVvq8T3kadwUlrQLAQEDdGgG9pOpOpWa2th2/aHtc0BlRocXSAZaLE90HRaerWa0XMfHsA4rMdKqdV7qUNaATDg4nMWhzLCNJBf8UFXT2g+o1z6lM52Dd0mGoD1D1c5Itc27gDxEavZGBy0qYdFgDlHotJ6xtxuTc+xZra2HeHUstGiwSA+XO/uwDAiBJy5z3tbxC2gqcgfKPegcQSm4ceQ9qNyON+/5aIA1eV+7Tz0VRtDHV6eIotJG7qB7fRkNeC3JLpBvJH1e3q1msEkwPqwHFY7pVtxrhl3T25HAhz4pkuIMNaHxJJy8Qg2LavA2PsPcU7KzWA6V4d9Nmc5CWi9QZWHhOe7b2OvEJrpHjM1MUaNSXViKYNN0hjXHKTmF5vYTwPJBqpQodKmWABoMC0XcLe0J1uKboTB5G3lOqB9CQOCVAIXJeOa5NZvOe6/sCBxCaNQ8Gnxt70ZXHiB3X9pQOEhKmxSA7TzN04gadUHEHyMexJnZ2ILHTY/D5o6/wBR/CAzU/6fYjOzs8Akl/L2D/2QS7t8h80GXxAFTEVhoQ8w42blFJgfTPa4AzybJEKs2bictbEvpjId4ymHPtkptoUoa/XqmQGO55dQSpsOqOqgTl3r3PaBJbDyG1wDrZoAbochP5S0xtnEbyuY3gNYNFMEZa7hh6UvD+LoJdBkQXGTEgLvo0yH1g0Fg/CcGH0mAhzSDOhJaT4q8LWcTPefhos9sEE16gzCpNOn+IS6CQ+qCyDxZ6PvvK0TaZHIdzf5QG9HAE9wWD2hsr7aMax5aKbqhY8kiYYGgCfyumSD231W9c2Llxt4e5YTYGynVadSoaxYS+oZBkAl0w5pmTxngCI5oNH0UfODoAuMtptYRxlnUIPGerdWwaODfE/zdUnQjq0H05k061VpvMZnb0SeeV7VokDfW7B7UbvmSfZ7k4hByGAcEsJUIMx0tw5e5gDiAKdZ74IALRkhruYm8cYjiqhmxDNCnncBu3WLiGhzWshxvIcAXN7M08lP6TNc6pWc02p0WtIAElzs7rGRzbpxAXFfAPD6QNWHEvYHda0Mc4yM1iA02PzQW2x6xfh6TRYBjWkAy4loyuE8BINyrOnRtHojkPi5VewK2Rj6XpObUeLReYfMgAAda3crPcud6Zt6g08TxQcivPVpgHgT+UHj3nuTtHDgHMTmdzPuA4JzM1o4ADwCZ37negLesbDy4oH3uAEkwOZUc1nO9AW9Y6eA4pW4USHOOYjSdB3BSUDFLDgXN3esdfDkO5Um2qwGIp8S0SOQnOSdNZa3vgrRFZ7GGcT1rNvficrW5vLMIHaTqAgi7X2g2oBIIDZkhpk9V0kSNJDT58lo6NaQDBuAdOwKp2zkhuW5zMgC4u4AdlzAPPwU/ZjnmlT0HVAPEyBB9oQSjVjgfGB8VxvHu0AA9Yz7B9eKWGi5Mntv5Bdbw8B52/lAy3BCZLieP0dY7lB21gw6nUyellPbdvWbJ71Yv/qd4C38peEBtu23sQZDZWzMPUpuY9oLhlcDds03C12kEgQ5onl2qpobJY/FOaxxaGudB9Iywhuoyk9bLeea5xuOfSeGsIBaX0icwBJLi3LBGhc2cxNpPK2h6H4JpbUeIPos1DhpmdBBg3cLjXXjAC72earGhtYtPAOE+Tp4+P8ANgWgqI6i+I1HKx9pv5yhtXLzAHB0+x3zQPHDN4W8o8km6jg0+ELqniGniPP6lOZxzQNAD1Pcu952HySmq3mPNc73kCfZ7SgXedh8ly+tHDzI9yCHHiAOy580jSwdp8ygRpeeTR5k+6FITQc48PP5J1AIQhAJHJUzjKuRjn+q0u8gT8EGP2eyW5gXfmqQDatvXZtz7QDeAcugkJrZuEZUq12kkbytZzHvZuoo0C5rQCIdMAGxlp9WFJ2ZhS2ixxc8OosZu2aFzXACYj0ql2jkR2lRdmYfeVMQwvOWtXl7m5Zb+DRLW5omToDa7XHUwgtOjjAK5IJvTLcskg7tzYqCdM4eD3ZdVqAsxsrMcWHFxJbTqUuHWh1NweIA6uoHaHLThBF2pUy0ah5Nd7lmej2ymnDtcX5coPWBgi5MEHQX43PZxuulLv7NUExmyt/3OAPslUuyNiVH06bt7UZDWQQ+QRlFojrC5udPy80EvoqzJVxVO13U6ojQh1MU80cP7rRaVZLZdB1HHhri78Sg5sOdmH4VQOBaYEiKru211rUAhCEAhC5c6LnTVBjdqYWpU39QVHNbvMlgDoW0j2kyOfErvH7NrTSJrGTUaA4DWQ4D80TfuumG/aDTaQGy97HDUiXVQ4lx0vNvFSdpCtlzAiz6biSLD8RozNk211QTNiU/s9WpTe+czWPGlyCWuIa0anqq5FSo7RuXtdr4NHxKodnNqMxNPMAA8PHGTIDwb/5L9pWoQR2YUTLjmPM/AaBPgJUIBCEIEKyzcMamIqFrnTLuNhD8sDwaDPM8eGoebLI4OrUBJDWyQyMrjJ9JwJhlic1yO5BI2lsp7GEte93GS7UyDGh8yb8b3VlsWn+EAOsGl7Q5xMkBxgkRa0Ku2licRkcKjWjqutn4Rr6HDmPIKy6P1czXHKG9acoMgAtb2BBYNpnmB3N/lLueZJ8Y9ycQg4bTA0C5r1A1rnHQAk+AlOqt2++KLh60M4CATDjfgG5jodEGVxlSrlwwND/ytcCdXl0kgjhfztoFpNiVDvKzTTNMyx2WQfSBBIj/AC8OapNrYJ7X4cGtm68jTqNy3jjlvrqY1CtsCxzMRDqpqZqZva0EFsgafmjnBPNBepIQEqBp+HYdWg+ATf2No0kdxkeRUlCCPuXD83sj3IyO+nH5KQhBH3Z5DxJd712KbuYHcE6hA2KI4knvKcQhAIVXtrb+HwuXfF4zSBlpVKmkTO7aY1Gqq/v9s/1636XE/toNQq/b5/s1WOLHN/3DL8VT/f7Z/r1v0uJ/bUDbnTTAVaLqQdWOcsaf7LiR1S9ufWn6soJJpz+LmqOdTOVjRUfNUGes29swFuAyuvExC2RQ62Ip5zlrYgkvabNmjQMyb30aTeVXDpZhhFbPid605A3cYkg0zALpdTOU/mPKC3tMbZ+3cG11em9+Iy1aznmqKGKYS3d0wRlayBJzRa0O4wSGpwIIxNGSTkFSiJgB7SwuD2wB1Zpkd+bhE6sLzgdK8IK1A565bRcescNXux9Ko0W3QiCWz2kLQff7Z/r1v0uJ/bQL0/qOGGAYYcX27gx5PsRs3a7aQyucCzRsNIyGS3IZm1rHwWe6WdLsNWDBSdW6u8J/suIvLMgaPw7HrE/6U9g+k2Byk1KlUuMwPsmKygE8W7vU8UE/FY6cZhCXSd89hEEQHUXwL9seffOzXleK6TYUFpacQ7LiaNYE0MSeqIbUBBZctEkHiFrPv9s/1636XE/toNQhZf7/AGz/AF636XE/to+/2z/XrfpcT+2g1Ch7WqZaNQzHVIk9tviqP7/bP9et+lxP7aibS6b7PqNDJqkF7M04XExlDg4yN3/THigm4qpTy0mOc0MbVZBkC7JcCR/pEc5Xe18QH0jmcGgZS0g9Y5XNcJg9XTTj2aKgr9J9m7xhAqOaHEn+yVxH4bm/4VwSRfhC7xnSjZ27eBvCS1wDfsmJGUkWDfw/rsQXuPxgcWuJaN29jrOE+lld5tc+B/0tEvO63SbZ5YTD5LT1fsmIm4gdbd8LQOEK4odP8BlaS6sDAkfZcTYxcf3f1CDWIWX+/wBs/wBet+lxP7aPv9s/1636XE/toNQhZf7/AGz/AF636XE/to+/2z/XrfpcT+2g0GPfFJ50hrrm3BUOzsaxsuDmkWiXCzQxovxHf5jiou0OnWAdTLQ6sSS0f/FxOmYZtafKVEw3S/AQQ41QMziB9kxGmYhsfhXtFz5cUGgxe0qb2loc3QyczQRbWZ6o/q8kvR6s0l8EE5aZIEQDBFgOBABVI/pds0Xa6qOz7JifEzuuPbqmdl9NMEwtLjVE04MYXEekC2NKfL3IN2hZf7/bP9et+lxP7aPv9s/1636XE/toNQqrbDQ59OmTAkvJki4hrRY8cx8lWff7Z/r1v0uJ/bUCr02wRqOfmrRDW/8AxcRdozE5fw7GXaoO9s4Gm2tSa1xy5iXSS4M0JmTfXTh3KyGEp0qtFzHEgm4L3Os4Zc0k6FxaI8ln8b0swWalkNXKzNE4XE9Wcus0+sNU/V6W7PazqOql0h98LibvDg6Qd3YW007kG6CVZf7/AGz/AF636XE/to+/2z/XrfpcT+2g1CFl/v8AbP8AXrfpcT+2j7/bP9et+lxP7aDUIWX+/wBs/wBet+lxP7aPv9s/1636XE/toNQhZf7/AGz/AF636XE/to+/2z/XrfpcT+2g1CFnML02wNR7abHVS57g1s4bENEkwJc6mAO8laNByEqEIBI5IhADT67EH69iEIA/XtXSEIEQhCAKVCEAhCEAuXcPrgUIQL9e9CEIBKhCAQhCAQhCAKQIQgUpEIQKhCEAhCECfJKhCACEIQCEIQCEIQCEIQCVCEH/2Q==;" vertex="1" parent="1">
          <mxGeometry x="895" y="-767" width="238.62" height="100" as="geometry" />
        </mxCell>
        <mxCell id="fCjp3aF1WN8j-PdhTGa--5" value="Regional / local grid" style="text;html=1;align=center;verticalAlign=middle;whiteSpace=wrap;rounded=0;fontStyle=1" vertex="1" parent="1">
          <mxGeometry x="875" y="-938.5" width="90" height="30" as="geometry" />
        </mxCell>
        <mxCell id="fCjp3aF1WN8j-PdhTGa--6" value="Major grid" style="text;html=1;align=center;verticalAlign=middle;whiteSpace=wrap;rounded=0;fontStyle=1" vertex="1" parent="1">
          <mxGeometry x="790" y="-728" width="90" height="30" as="geometry" />
        </mxCell>
      </root>
    </mxGraphModel>
  </diagram>
</mxfile>
